<svg xmlns="http://www.w3.org/2000/svg" viewBox="0 0 287 288">
  <g fill="none" fill-rule="evenodd" transform="translate(2 2)">
    <circle cx="142" cy="143" r="122" stroke="#AAA" stroke-width="4"/>
    <circle cx="143" cy="20" r="20" fill="#FFF" stroke="#AAA" stroke-width="4"/>
    <circle cx="228" cy="57" r="20" fill="#FFF" stroke="#AAA" stroke-width="4"/>
    <circle cx="142" cy="143" r="42" fill="#B03C44"/>
    <circle cx="263" cy="143" r="20" fill="#FFF" stroke="#AAA" stroke-width="4"/>
    <circle cx="228" cy="229" r="20" fill="#FFF" stroke="#AAA" stroke-width="4"/>
    <circle cx="142" cy="264" r="20" fill="#FFF" stroke="#AAA" stroke-width="4"/>
    <circle cx="56" cy="229" r="20" fill="#FFF" stroke="#AAA" stroke-width="4"/>
    <circle cx="20" cy="143" r="20" fill="#FFF" stroke="#AAA" stroke-width="4"/>
    <circle cx="56" cy="57" r="20" fill="#FFF" stroke="#AAA" stroke-width="4"/>
    <g fill="#FFF" fill-rule="nonzero">
      <g fill-opacity=".7">
        <path d="M150.76 152.474l.69.724-4.85 4.618-.69-.725z"/>
        <path d="M150.753 152.438h1v7.155h-1zm1.935-6.963l.95.31-1.5 4.617-.95-.31zm-1.888 6.795l-.875.486-3.463-6.233.874-.486z"/>
        <path d="M142.258 144.567l.297-.955 5.192 1.615-.297.955z"/>
        <path d="M147.503 146.217l-.986-.17.693-4.038.985.164z"/>
        <path d="M148.308 141.963l-.522.853-4.157-2.54.52-.854zm-5.564 2.344l-.886.462-2.885-5.54.887-.46zm-5.738-.05l-.983-.183.347-1.848.983.184z"/>
        <path d="M143.04 144.366l-.038 1-6.23-.232.036-1zm-10.003-11.006l.64-.77 6.922 5.77-.64.767zm14.49-5.517l.06-1 5.885.348-.06 1zm2.605 5.277l-.707-.707 2.19-2.19.708.706z"/>
        <path d="M147.49 127.9l.897-.44 2.54 5.196-.898.44z"/>
        <path d="M142.904 124.36l.616-.79 4.73 3.694-.614.788zm8.062 19.448l-.504.864-2.766-1.614.504-.864zm-14.396 14.987l-.17.986-6.002-1.034.17-.985z"/>
        <path d="M131.34 155.514l.938.346-.81 2.195-.937-.346z"/>
        <path d="M133.514 153.512l.667.745-2.19 1.963-.666-.745zm7.6 9.405l-.33-.944 4.612-1.615.33.944zm1.002-5.39l.256.966-6.115 1.616-.255-.97z"/>
        <path d="M145.752 161.127l-.695.72-3.577-3.462.696-.72z"/>
        <path d="M145.843 157.04l.997.084-.347 4.156-.996-.083zm-7.037-26.77l-1 .052-.23-4.382 1-.052z"/>
        <path d="M142.28 128.34l-.544.84-3.922-2.536.543-.84z"/>
        <path d="M147.825 128.096l.04 1-5.772.23-.04-1zm-13.71-2.43h4.692v1h-4.692z"/>
        <path d="M134.06 125.592l.746.664-1.85 2.08-.746-.664z"/>
        <path d="M134.022 134.29l-.972.235-1.616-6.696.972-.24zm.658 6.707l-.995.106-.692-6.465.994-.106zm1.182 18.213l.57-.822 5.312 3.695-.57.82z"/>
        <path d="M134.21 140.96l.784-.623 2.657 3.35-.78.62zm-.566-6.788l-.57-.82 5.31-3.696.57.82zm5.962 4.63l.173-.985 4.612.808-.173.985zm6.07 22.504l-.31-.95 5.306-1.73.31.95zm5.084-17.34l.683-.73 1.848 1.734-.68.73z"/>
      </g>
      <g transform="translate(129.813 122.833)">
        <ellipse cx="20.386" cy="10.099" rx="1" ry="1"/>
        <ellipse cx=".953" cy="35.025" rx="1" ry="1"/>
        <ellipse cx="3.795" cy="30.694" rx="1.226" ry="1.266"/>
        <ellipse cx="6.363" cy="36.123" rx="2.959" ry="3.057"/>
        <ellipse cx="12.289" cy="34.622" rx="1.733" ry="1.791"/>
        <ellipse cx="15.748" cy="38.317" rx="1.733" ry="1.791"/>
        <ellipse cx="16.193" cy="34.275" rx="1" ry="1"/>
        <ellipse cx="1.741" cy="32.717" rx="1" ry="1"/>
        <ellipse cx="22.401" cy="8.13" rx="1" ry="1"/>
        <ellipse cx="7.215" cy="21.407" rx="1" ry="1"/>
        <ellipse cx="7.55" cy="19.56" rx="1" ry="1"/>
        <ellipse cx="21.065" cy="21.061" rx="1" ry="1"/>
        <ellipse cx="4.31" cy="2.943" rx="1" ry="1"/>
        <ellipse cx="2.631" cy="4.79" rx="1" ry="1"/>
        <ellipse cx="11.454" cy="39.985" rx="1" ry="1"/>
        <ellipse cx="21.003" cy="36.582" rx="1" ry="1"/>
        <ellipse cx="22.9" cy="22.732" rx="1" ry="1"/>
        <ellipse cx="14.405" cy="16.73" rx="1" ry="1"/>
        <ellipse cx="4.747" cy="18.061" rx="1.452" ry="1.5"/>
        <ellipse cx="12.734" cy="21.578" rx="2.569" ry="2.654"/>
        <ellipse cx="10.025" cy="15.956" rx="1.897" ry="1.96"/>
        <ellipse cx="18.208" cy="19.271" rx="1.288" ry="1.331"/>
        <ellipse cx="17.536" cy="23.2" rx="1" ry="1"/>
        <ellipse cx="23.454" cy="5.308" rx="1.226" ry="1.266"/>
        <ellipse cx="13.179" cy="1.266" rx="1.226" ry="1.266"/>
        <ellipse cx="8.963" cy="7.47" rx="1" ry="1"/>
        <ellipse cx="12.203" cy="5.51" rx="1" ry="1"/>
        <ellipse cx="8.737" cy="3.09" rx="2.483" ry="2.565"/>
        <ellipse cx="17.872" cy="5.074" rx="3.74" ry="3.864"/>
        <ellipse cx="20.776" cy="29.427" rx="4.583" ry="4.735"/>
        <ellipse cx="4.216" cy="10.874" rx="4.216" ry="4.356"/>
      </g>
    </g>
  </g>
</svg>
