<svg xmlns="http://www.w3.org/2000/svg" viewBox="0 0 913 500">
  <g fill="none" fill-rule="evenodd">
    <g class="lines" fill="#B03C44" fill-rule="nonzero">
      <path d="M267.288 367.34l2 2.1-60.1 57.236-2-2.1z"/>
      <path d="M268.2 367h2.9v88.7h-2.9zm24.47-86.362l2.758.896-18.608 57.25-2.758-.896zm-24.585 84.204l-2.535 1.41-42.936-77.272 2.535-1.408z"/>
      <path d="M160.477 269.58l.862-2.77 64.352 20.02-.86 2.768z"/>
      <path d="M226.724 289.906l-2.858-.49 8.585-50.068 2.86.49zm9.306-52.9l-1.512 2.473-51.54-31.5 1.512-2.48zm-70.988 29.12l-2.572 1.34-35.76-68.645 2.573-1.34zm-72.832-.508l-2.85-.534 4.294-22.902 2.85.534z"/>
      <path d="M168.112 266.766l-.107 2.898-77.246-2.86.1-2.898zM42.717 130.606l1.856-2.227 85.808 71.492-1.85 2.228zm185.378-68.35l.17-2.894 72.976 4.29-.17 2.896zm32.598 65.374l-2.05-2.05 27.152-27.153 2.05 2.05z"/>
      <path d="M226.914 62.863l2.605-1.274L261.01 126l-2.608 1.273z"/>
      <path d="M168.658 19.047l1.784-2.286 58.65 45.78-1.785 2.29zm101.708 240.83l-1.462 2.506-34.292-20.005 1.46-2.505zM85.33 445.657l-.495 2.858-74.398-12.873.495-2.855z"/>
      <path d="M19.39 405.077l2.72 1.003-10.024 27.21-2.72-1.002z"/>
      <path d="M46.962 380.193l1.934 2.162-27.2 24.338-1.934-2.16zm98.714 116.857l-.958-2.738 57.194-20.023.96 2.73zm10.654-67.125l.742 2.804-75.797 20.02-.74-2.807z"/>
      <path d="M203.426 474.608l-2.017 2.084-44.34-42.906 2.012-2.084z"/>
      <path d="M205.24 424.047l2.89.24-4.293 51.52-2.89-.24zM115.136 92.175l-2.896.153-2.86-54.324 2.897-.152z"/>
      <path d="M158.864 68.147l-1.575 2.435-48.62-31.45 1.575-2.436z"/>
      <path d="M229.516 65.077l.116 2.898-71.543 2.864-.12-2.9zM55.1 35.1h60.1V38H55.1z"/>
      <path d="M54.005 34.096l2.168 1.926-22.918 25.785-2.168-1.926z"/>
      <path d="M53.578 141.993l-2.82.68-20.034-83.017 2.82-.68zm8.622 83.16l-2.885.31-8.584-80.14 2.89-.31zm16.376 225.91l1.656-2.38 65.836 45.8-1.656 2.38z"/>
      <path d="M56.875 224.788l2.273-1.802 32.934 41.526-2.272 1.802zm-6.7-84.1l-1.656-2.38 65.83-45.803 1.655 2.38zm76.215 57.43l.5-2.856 57.227 10.016-.5 2.857zm77.872 278.975l-.9-2.757 65.79-21.452.9 2.757zm64.398-214.99l1.984-2.117 22.906 21.474-1.983 2.116z"/>
    </g>
    <g class="circles" fill="#B03C44" fill-rule="nonzero">
      <circle cx="261.1" cy="125.2" r="12.2"/>
      <circle cx="12.2" cy="434.2" r="12.2"/>
      <circle cx="48.6" cy="380.5" r="15.7"/>
      <circle cx="81.5" cy="447.8" r="37.9"/>
      <circle cx="157.4" cy="429.2" r="22.2"/>
      <circle cx="201.7" cy="475" r="22.2"/>
      <circle cx="207.4" cy="424.9" r="9.3"/>
      <circle cx="21.5" cy="404.9" r="5"/>
      <circle cx="286.1" cy="100.1" r="5"/>
      <circle cx="91.6" cy="264.7" r="5"/>
      <circle cx="95.9" cy="241.8" r="5"/>
      <circle cx="269" cy="260.4" r="5"/>
      <circle cx="54.4" cy="35.8" r="5"/>
      <circle cx="32.9" cy="58.7" r="5"/>
      <circle cx="145.9" cy="495" r="5"/>
      <circle cx="269" cy="453.5" r="9.3"/>
      <circle cx="293.3" cy="281.8" r="9.3"/>
      <circle cx="184.5" cy="207.4" r="9.3"/>
      <circle cx="60.8" cy="223.9" r="18.6"/>
      <circle cx="163.1" cy="267.5" r="32.9"/>
      <circle cx="128.4" cy="197.8" r="24.3"/>
      <circle cx="233.2" cy="238.9" r="16.5"/>
      <circle cx="224.6" cy="287.6" r="12.2"/>
      <circle cx="300.4" cy="65.8" r="15.7"/>
      <circle cx="168.8" cy="15.7" r="15.7"/>
      <circle cx="114.8" cy="92.6" r="11.8"/>
      <circle cx="156.3" cy="68.3" r="7.2"/>
      <circle cx="111.9" cy="38.3" r="31.8"/>
      <circle cx="228.9" cy="62.9" r="47.9"/>
      <circle cx="266.1" cy="364.8" r="58.7"/>
      <circle cx="54" cy="134.8" r="54"/>
    </g>
    <path class="text" fill="#000" d="M560 291.7c0-39.9-2.7-48.6-56.4-61.5-34.5-8.4-35.1-9-35.1-31.8 0-17.4 4.5-22.8 30-22.8 17.4 0 36.9 2.4 53.4 6l4.2-31.8c-19.8-4.5-40.8-6.6-58.2-6.6-50.7 0-67.2 18-67.2 54.3 0 42.3 6.6 51.6 54.9 62.4 36 7.8 36.6 9.6 36.6 31.8 0 19.2-4.5 24.9-31.8 24.9-19.8 0-37.8-3.6-56.4-9.3l-6.6 29.7c13.2 6.3 39.6 12 62.4 12 59.1 0 70.2-19.5 70.2-57.3zm59.188 2.7c0 17.7 6.3 24.6 28.5 24.6 14.1 0 28.8-2.1 44.7-6.9l5.7 27.6c-16.5 6.3-36.3 9.3-53.7 9.3-45.9 0-61.8-21.3-61.8-56.4v-38.7c0-30.9 13.8-57 60.6-57s57.3 27.3 57.3 58.8v31.2h-81.3v7.5zm0-44.1v7.2h46.5v-7.2c0-13.8-4.2-23.4-22.2-23.4s-24.3 9.6-24.3 23.4zm180.687-53.4c-12.9 3.6-30.3 13.8-38.4 19.2l-2.4-16.2h-30.9V346h36.6v-94.2c13.2-8.4 24.6-15 38.7-21.3l-3.6-33.6zm112.288-58.5c-9.6-2.7-20.1-4.2-31.5-4.2-32.4 0-46.5 15-46.5 45.3v20.4h-23.4V229h23.4v117h36.6V229h35.1l2.1-29.1h-37.2v-18.3c0-11.1 2.1-17.4 16.5-17.4 6 0 14.1.9 21 2.4l3.9-28.2z"/>
  </g>
</svg>
