<?xml version="1.0" standalone="no"?>
<!DOCTYPE svg PUBLIC "-//W3C//DTD SVG 20010904//EN"
 "http://www.w3.org/TR/2001/REC-SVG-20010904/DTD/svg10.dtd">
<svg version="1.0" xmlns="http://www.w3.org/2000/svg"
 width="16.000000pt" height="16.000000pt" viewBox="0 0 16.000000 16.000000"
 preserveAspectRatio="xMidYMid meet">
<metadata>
Created by potrace 1.11, written by Peter Selinger 2001-2013
</metadata>
<g transform="translate(0.000000,16.000000) scale(0.001600,-0.001600)"
fill="#000000" stroke="none">
<path d="M5035 9986 c-82 -26 -149 -86 -193 -171 -53 -105 -28 -255 57 -341
36 -37 93 -77 103 -73 2 0 17 -5 33 -12 73 -30 189 -13 267 39 22 14 42 22 46
16 4 -5 48 -40 99 -78 96 -72 98 -75 62 -126 -29 -43 -94 -192 -104 -240 -2
-14 -11 -55 -18 -92 -8 -37 -13 -108 -13 -158 l1 -90 -30 -1 c-16 -1 -64 -3
-105 -4 -41 -2 -106 -4 -143 -6 l-68 -4 -23 45 c-41 81 -140 111 -212 63 -23
-15 -28 -13 -121 48 -54 36 -108 72 -121 81 l-23 16 30 60 c17 33 32 72 35 86
3 14 7 29 9 34 18 27 25 187 12 262 -10 58 -53 180 -71 201 -8 8 -14 20 -14
25 0 13 -47 70 -104 126 -120 119 -279 179 -456 174 -173 -5 -308 -64 -430
-186 -75 -75 -138 -179 -165 -270 -3 -10 -19 -95 -19 -104 -1 -5 -94 -9 -209
-10 -196 -1 -208 0 -213 18 -10 30 -38 56 -72 65 -66 19 -138 -51 -120 -117 9
-34 2 -45 -77 -128 -5 -6 -35 -39 -65 -74 -127 -145 -136 -153 -156 -142 -37
19 -95 1 -117 -37 -29 -49 -22 -89 22 -130 35 -33 48 -59 58 -116 2 -11 17
-76 33 -145 17 -69 32 -135 35 -147 4 -15 1 -23 -8 -23 -8 0 -61 -24 -118 -52
-157 -79 -276 -178 -381 -316 -72 -96 -160 -271 -174 -346 -3 -16 -7 -33 -9
-36 -2 -4 -7 -20 -9 -36 -3 -16 -9 -40 -12 -54 -3 -14 -8 -84 -9 -155 -4 -144
14 -260 61 -389 65 -182 204 -372 349 -481 22 -16 42 -32 45 -36 22 -24 162
-96 250 -128 118 -43 207 -60 337 -65 29 -1 55 -4 57 -7 3 -2 8 -31 11 -64 3
-33 8 -78 11 -100 2 -22 7 -70 9 -106 l5 -66 -31 -7 c-40 -8 -137 -66 -166
-100 -63 -73 -110 -209 -98 -286 21 -141 90 -242 202 -298 90 -45 199 -53 288
-20 l50 18 20 -24 c11 -13 31 -38 45 -57 14 -18 32 -41 41 -50 9 -9 21 -23 25
-31 5 -8 23 -33 41 -54 149 -181 180 -227 178 -258 -8 -92 98 -145 163 -83 28
27 29 27 148 22 65 -2 193 -7 284 -11 144 -5 251 -10 271 -13 4 -1 6 -11 5
-24 -1 -12 2 -40 7 -62 5 -22 10 -48 12 -58 10 -48 67 -179 90 -204 5 -6 28
-34 50 -60 91 -112 245 -200 385 -220 265 -39 492 56 649 271 20 28 45 68 55
89 19 42 17 42 139 1 37 -13 67 -20 67 -17 0 3 6 1 13 -4 11 -9 46 -21 85 -29
8 -1 21 -6 30 -10 21 -9 28 -11 46 -13 10 -1 15 -13 15 -38 0 -33 5 -66 11
-83 1 -3 2 -8 2 -11 -2 -18 80 -106 118 -125 49 -25 122 -36 157 -23 24 9 41
-9 73 -76 8 -16 17 -32 20 -35 5 -5 25 -41 74 -134 l26 -49 -52 -34 c-300
-197 -491 -516 -524 -877 -5 -56 -5 -187 1 -226 2 -14 6 -41 9 -60 9 -66 36
-174 47 -187 7 -7 9 -13 5 -13 -4 0 0 -13 9 -30 8 -16 16 -33 16 -37 4 -30
106 -211 135 -240 8 -8 14 -17 14 -21 0 -4 27 -36 60 -72 l59 -65 -42 -38
c-23 -22 -74 -70 -113 -108 l-71 -70 -48 24 c-54 28 -122 29 -171 4 -36 -18
-79 -66 -90 -98 -11 -34 -13 -99 -5 -118 29 -60 44 -79 80 -104 37 -26 40 -31
36 -66 -4 -37 -6 -62 -20 -246 -4 -44 -9 -82 -11 -84 -2 -3 -19 -6 -37 -7 -98
-6 -215 -51 -266 -102 -12 -11 -20 -7 -55 27 -23 22 -85 82 -138 133 l-98 93
44 60 c25 32 43 62 40 66 -2 4 0 10 6 14 8 5 28 62 36 105 18 96 -7 225 -62
311 -52 82 -152 160 -244 190 -57 18 -244 17 -267 -2 -2 -1 -7 -3 -13 -4 -5
-1 -13 -4 -17 -5 -5 -1 -11 -2 -15 -1 -5 0 -8 -2 -8 -7 0 -4 -14 -13 -31 -21
-47 -21 -143 -120 -173 -178 -46 -91 -62 -208 -42 -298 l7 -31 -103 -27 c-57
-15 -112 -30 -123 -32 -11 -3 -41 -11 -67 -19 -48 -14 -68 -8 -68 22 0 17 -41
135 -50 142 -3 3 -17 27 -30 53 -57 109 -234 262 -360 312 -218 85 -426 75
-639 -32 -173 -86 -315 -254 -373 -441 -15 -49 -6 -48 -175 -17 -16 3 -73 13
-128 22 -55 9 -104 19 -108 23 -5 4 -10 25 -13 46 -7 61 -45 125 -99 166 -27
20 -52 35 -57 32 -12 -7 -13 -11 40 134 27 73 51 130 54 126 4 -3 22 -1 41 5
41 14 72 67 64 109 -5 28 -8 26 111 130 29 26 68 62 87 79 32 32 33 33 56 14
13 -10 40 -25 59 -34 132 -59 261 -32 363 76 73 77 99 188 69 291 -54 189
-268 284 -443 196 -49 -26 -114 -93 -141 -148 -19 -38 -23 -63 -23 -132 0 -74
4 -92 28 -139 16 -31 25 -56 19 -60 -11 -7 -129 -111 -185 -164 -33 -31 -45
-37 -69 -32 -42 10 -87 -4 -104 -30 -24 -37 -28 -83 -9 -111 16 -24 15 -29
-12 -102 -15 -42 -28 -79 -28 -82 -1 -3 -9 -22 -18 -44 -9 -21 -17 -45 -17
-52 0 -8 -11 -14 -27 -15 -95 -2 -175 -53 -218 -139 -10 -19 -20 -62 -21 -95
-12 -216 248 -333 407 -183 20 18 42 48 50 66 15 34 19 35 109 17 14 -3 79
-14 145 -25 66 -11 129 -22 141 -25 19 -4 20 -12 21 -112 0 -126 6 -173 34
-257 19 -58 83 -185 98 -196 4 -3 15 -16 24 -30 73 -106 271 -241 391 -266
160 -34 239 -36 375 -9 81 16 205 73 273 126 20 16 39 29 42 29 4 0 23 18 44
41 l38 40 32 -18 c18 -10 32 -21 32 -25 0 -5 6 -8 14 -8 8 0 16 -4 18 -8 1 -4
47 -38 101 -75 189 -130 262 -182 265 -189 2 -5 10 -8 17 -8 7 0 15 -3 17 -7
5 -12 95 -73 107 -73 6 0 13 -12 17 -27 15 -72 53 -106 114 -101 27 2 88 50
90 71 0 4 0 11 0 16 0 7 175 73 230 86 3 1 12 5 20 8 33 14 363 127 364 125 1
-2 8 -16 16 -33 41 -83 200 -197 291 -209 19 -3 34 -5 34 -6 0 -8 93 -4 143 6
221 45 379 253 357 471 -4 35 -1 50 8 50 6 1 39 11 72 23 33 12 67 24 75 26
17 4 228 73 250 81 8 3 20 7 25 8 6 2 79 26 164 54 l155 51 20 -24 c99 -117
305 -48 320 107 8 76 -47 165 -116 189 l-26 9 0 210 c1 204 2 210 22 214 12 2
59 11 106 20 46 9 111 26 145 37 97 32 268 119 302 154 8 8 17 14 21 14 7 0
42 30 107 89 27 25 115 122 133 146 49 69 72 105 72 113 0 6 3 12 8 14 11 5
67 126 95 208 26 77 35 111 43 167 2 17 8 51 12 75 12 68 6 244 -12 341 -44
237 -149 439 -316 606 -47 48 -96 95 -110 106 -73 59 -191 126 -295 169 -28
12 -36 19 -26 25 7 5 11 10 10 12 -6 8 106 341 116 344 5 1 32 8 59 14 27 6
60 22 73 34 30 28 66 95 60 111 -3 7 -2 19 3 26 12 20 -20 102 -53 133 -64 59
-164 72 -225 29 -16 -12 -32 -22 -35 -22 -2 0 -22 17 -44 38 -21 20 -79 74
-127 119 -88 81 -89 83 -90 132 -2 42 -7 54 -31 76 -34 28 -88 34 -120 11 -18
-12 -31 -7 -130 50 -60 35 -114 67 -120 71 -5 4 -26 16 -46 27 -74 39 -74 39
-54 92 50 131 -6 297 -128 377 -122 81 -272 75 -389 -16 -38 -29 -63 -30 -90
-4 -15 14 -166 107 -174 107 -3 0 -12 6 -19 13 -8 6 -81 52 -163 102 -82 49
-148 94 -146 100 19 54 6 121 -32 173 -43 56 -122 81 -193 62 -42 -11 -111
-65 -111 -87 0 -17 -26 -19 -87 -7 -13 2 -35 6 -50 9 -16 3 -53 10 -83 15 -93
16 -114 20 -140 25 -13 2 -42 7 -65 11 -22 3 -42 8 -45 11 -3 2 -6 23 -6 46
-6 177 -107 342 -255 418 -88 45 -149 58 -244 55 -136 -5 -237 -47 -327 -137
l-37 -37 -28 21 c-15 12 -33 26 -39 32 -6 6 -41 35 -78 65 -36 29 -66 57 -66
62 0 4 -5 8 -11 8 -5 0 -24 13 -41 29 l-31 29 48 63 c88 114 159 273 196 439
17 81 19 293 3 381 -8 41 -16 83 -18 94 -2 11 -12 40 -21 65 -9 25 -20 57 -24
71 -5 14 -25 56 -45 93 -36 66 -36 69 -19 85 25 21 110 81 117 81 2 0 22 -10
43 -22 45 -27 54 -29 118 -32 62 -2 111 16 156 57 101 94 108 235 16 331 -49
51 -73 65 -130 74 -41 7 -42 8 -48 56 -3 26 -5 75 -5 108 l1 60 40 3 c40 3
195 50 205 63 3 4 22 16 44 27 21 11 69 49 105 85 l67 66 43 -28 c197 -124
201 -128 196 -159 -8 -47 14 -106 51 -134 67 -51 150 -41 206 25 l33 39 161 5
c88 3 167 6 174 8 9 2 18 -15 27 -47 8 -27 21 -75 30 -105 24 -80 109 -250
126 -250 4 0 7 -7 7 -15 0 -8 5 -15 10 -15 6 0 10 -5 10 -11 0 -10 124 -137
166 -169 252 -198 602 -258 898 -154 38 13 73 24 78 24 4 0 28 -40 52 -89 l44
-89 -25 -34 c-30 -41 -44 -73 -50 -117 -2 -18 -4 -36 -5 -40 -1 -3 2 -24 7
-46 13 -66 60 -128 124 -163 36 -21 61 -26 122 -25 174 1 283 187 206 351
l-20 44 128 127 128 128 42 -5 c58 -6 95 26 102 88 4 39 2 49 -22 73 -15 15
-33 28 -39 29 -54 7 -70 3 -101 -26 -30 -29 -33 -37 -30 -78 l3 -46 -128 -127
-128 -126 -34 21 c-48 28 -132 36 -186 17 l-43 -15 -21 42 c-28 52 -68 137
-68 142 0 2 5 4 10 4 9 0 54 27 105 62 25 17 114 97 148 133 76 80 197 288
210 363 2 9 9 35 15 57 13 47 25 131 24 161 -1 20 3 21 75 18 81 -4 88 -6 89
-32 2 -61 36 -139 82 -188 154 -166 425 -121 515 86 106 243 -129 503 -381
422 -47 -15 -116 -61 -140 -94 -7 -9 -19 -24 -27 -32 -8 -8 -15 -21 -15 -30 0
-8 -4 -17 -9 -20 -4 -3 -11 -19 -14 -35 -5 -25 -10 -29 -29 -26 -13 3 -49 6
-80 7 -32 1 -59 5 -59 8 -1 3 -3 21 -4 40 -9 102 -25 178 -56 265 -20 58 -77
175 -90 185 -3 3 -12 16 -18 28 -28 54 -162 192 -234 241 -111 76 -261 144
-345 156 -15 2 -49 8 -77 13 -49 10 -258 9 -305 -2 -88 -20 -126 -30 -149 -42
-14 -8 -32 -14 -38 -14 -31 0 -220 -113 -254 -152 -9 -10 -19 -18 -23 -18 -7
0 -32 -25 -88 -88 l-29 -34 -95 73 c-52 40 -97 76 -100 81 -3 5 2 20 11 34 42
64 57 221 25 259 -7 8 -9 15 -5 15 4 0 2 6 -4 13 -6 8 -8 17 -4 20 3 4 1 7 -5
7 -7 0 -12 5 -12 10 0 22 -74 90 -119 111 -25 11 -53 24 -61 28 -27 12 -134
11 -175 -3z m-1977 -747 c31 -1 62 0 67 1 6 1 14 2 19 1 22 -5 137 -4 141 1 3
2 18 3 35 0 22 -3 30 -10 31 -26 4 -76 23 -164 49 -221 11 -24 20 -47 20 -51
0 -17 92 -133 138 -174 70 -63 72 -65 138 -98 78 -41 136 -59 209 -67 33 -4
61 -9 63 -10 2 -2 5 -42 8 -88 2 -47 4 -89 5 -94 4 -25 -4 -40 -31 -52 -87
-38 -140 -125 -136 -220 1 -31 9 -71 18 -88 15 -29 15 -33 -1 -46 -28 -24
-109 -77 -118 -77 -4 0 -19 17 -33 37 -66 97 -229 231 -362 299 -73 37 -206
85 -251 90 -16 2 -32 6 -35 8 -12 7 -144 19 -206 18 -87 -1 -182 -12 -231 -26
-49 -15 -65 -9 -69 25 -1 13 -5 31 -8 39 -4 8 -11 38 -17 65 -7 28 -14 59 -16
70 -41 173 -41 175 -18 193 28 23 41 51 39 87 -1 17 3 35 8 41 6 6 38 42 71
79 33 37 71 79 84 94 13 14 46 52 74 84 43 48 56 58 77 54 31 -6 84 15 99 40
6 10 11 15 11 11 0 -3 12 -3 28 1 15 5 30 6 35 4 4 -2 33 -4 65 -4z m620
-2745 c127 -107 157 -132 193 -161 36 -28 36 -28 19 -58 -51 -91 -70 -232 -45
-336 45 -192 202 -342 392 -374 42 -7 151 -7 162 0 11 6 62 17 90 19 21 1 34
-19 117 -179 l93 -179 -29 -14 c-15 -7 -37 -22 -48 -33 -12 -10 -24 -19 -27
-19 -11 0 -88 -87 -128 -145 -23 -33 -40 -60 -38 -60 2 0 -5 -18 -16 -40 -21
-40 -41 -106 -49 -155 -10 -69 -6 -65 -75 -63 -138 3 -589 20 -599 22 -3 0
-14 17 -24 36 -10 19 -27 37 -38 41 -10 3 -16 9 -13 14 2 4 7 23 10 41 3 19
13 72 23 119 16 82 18 86 54 102 58 27 80 86 53 138 -19 36 -47 52 -93 52 -45
0 -92 -47 -92 -92 0 -33 19 -80 32 -80 5 0 7 -12 4 -27 -2 -16 -5 -28 -6 -28
-1 0 -3 -12 -5 -28 -2 -15 -9 -53 -16 -85 -17 -85 -17 -86 -18 -103 -1 -15
-41 -35 -41 -21 0 4 -13 21 -28 38 -15 17 -36 43 -47 59 -11 15 -25 32 -30 39
-9 9 -189 236 -218 274 -7 9 2 24 32 53 89 88 127 224 97 355 -22 102 -126
216 -228 252 -36 13 -84 23 -107 24 -23 0 -41 5 -42 12 -2 24 -16 165 -24 244
-2 23 -6 46 -9 50 -10 17 11 30 59 36 213 29 427 129 579 270 27 25 51 46 53
46 2 0 34 -25 71 -56z m1188 -559 c27 -4 56 -8 64 -10 16 -5 68 -14 110 -20
14 -2 50 -9 80 -16 30 -6 71 -13 90 -14 19 -2 38 -4 41 -4 3 -1 5 -12 4 -25
-3 -26 26 -99 48 -121 61 -61 159 -73 234 -30 23 14 43 30 43 36 0 5 12 1 28
-9 36 -25 135 -86 247 -153 50 -30 92 -57 93 -61 2 -5 8 -8 13 -8 8 0 169 -99
169 -105 0 -1 -9 -24 -21 -50 -21 -47 -29 -132 -17 -190 19 -99 90 -185 194
-235 38 -18 62 -35 58 -42 -4 -6 -8 -22 -9 -37 -2 -14 -8 -53 -14 -86 -6 -33
-13 -76 -16 -95 -4 -19 -12 -64 -18 -100 l-12 -65 -59 -7 c-32 -4 -70 -15 -82
-23 -13 -9 -24 -13 -24 -10 0 6 -50 -48 -87 -92 -17 -21 -20 -21 -58 -8 -22 8
-49 17 -60 19 -11 2 -38 11 -60 19 -22 8 -67 23 -100 32 -109 32 -105 30 -94
67 15 48 19 214 8 278 -10 54 -64 200 -77 210 -4 3 -13 16 -20 30 -17 34 -97
119 -152 163 -57 45 -179 103 -245 117 -124 26 -227 20 -400 -26 -16 -4 -24 2
-36 28 -8 18 -50 99 -92 181 -42 81 -77 149 -77 152 0 3 5 5 10 5 12 0 58 39
111 93 36 38 96 143 104 185 5 29 14 43 24 38 4 -3 30 -8 57 -11z m1945 -998
c53 -30 114 -66 135 -78 22 -13 48 -29 59 -35 11 -6 22 -24 26 -40 3 -16 12
-39 20 -52 18 -29 78 -48 106 -34 16 9 29 2 85 -51 35 -34 97 -92 137 -128 64
-60 70 -69 62 -91 -15 -40 -6 -122 17 -159 23 -37 56 -69 72 -69 14 0 15 4
-30 -131 -22 -67 -40 -125 -40 -129 0 -5 -5 -21 -12 -37 -6 -15 -12 -34 -14
-42 -6 -29 -22 -35 -65 -22 -22 7 -57 14 -77 17 -55 7 -66 9 -77 15 -13 8
-258 4 -315 -5 -79 -12 -226 -55 -296 -86 -37 -17 -71 -27 -75 -23 -11 11
-139 245 -139 254 0 4 -6 9 -12 12 -8 3 1 19 25 43 76 75 101 172 67 265 -20
54 -69 112 -110 129 -23 10 -28 17 -25 38 5 33 31 180 50 285 8 44 13 83 10
87 -8 12 4 17 59 24 27 4 54 10 60 14 6 3 17 7 24 8 21 4 90 52 114 79 19 22
24 23 42 11 12 -7 64 -38 117 -69z m-443 -3170 c91 -69 211 -134 322 -172 3
-1 12 -5 20 -8 70 -29 226 -53 360 -56 l45 -1 -1 -201 c0 -185 -2 -202 -19
-215 -10 -8 -26 -14 -34 -14 -9 0 -33 -15 -53 -33 -41 -36 -68 -103 -62 -154
4 -31 2 -32 -53 -49 -32 -10 -62 -19 -68 -20 -5 -2 -35 -12 -65 -22 -56 -20
-427 -142 -445 -147 -5 -1 -17 -5 -25 -8 -33 -12 -83 -27 -84 -25 -1 2 -14 30
-31 63 -52 103 -150 185 -265 219 l-44 13 3 44 c6 101 22 288 26 308 2 9 4 19
4 22 1 4 17 9 37 12 103 17 175 141 136 237 -10 23 -3 33 106 137 64 62 121
113 125 113 5 0 34 -19 65 -43z m-1852 -574 c24 -42 78 -101 127 -140 23 -18
117 -60 157 -71 92 -23 233 0 325 54 l40 23 138 -133 c75 -74 137 -137 137
-142 0 -4 -6 -15 -14 -23 -24 -28 -65 -114 -75 -160 -10 -47 -8 -195 3 -222 5
-12 -4 -19 -41 -32 -26 -8 -120 -41 -208 -72 -379 -133 -353 -126 -368 -105
-19 27 -78 35 -116 15 l-32 -16 -92 63 c-117 81 -158 110 -175 126 -7 6 -19
12 -27 12 -7 0 -15 3 -17 8 -3 7 -86 68 -198 144 -102 70 -97 62 -68 105 86
131 127 274 123 434 -2 81 1 87 33 94 9 1 37 8 62 15 25 7 50 13 55 15 6 1 17
5 25 8 8 3 51 15 95 26 44 11 81 20 82 20 0 1 13 -20 29 -46z"/>
</g>
</svg>
